<svg xmlns="http://www.w3.org/2000/svg" width="65" height="52" viewBox="0 0 65 52"><path d="M0,0H65V52H0Z" transform="translate(0 0)" fill="#fff"/><g transform="translate(39.502 5.2)"><path d="M2.592,39.2C2.039,38.715,2,38.9,2,37.467V10.6A2.6,2.6,0,0,1,4.6,8H21.067a2.429,2.429,0,0,1,2.6,2.6v26a2.6,2.6,0,0,1-2.6,2.6H2.592Zm18.474-1.733a.868.868,0,0,0,.867-.867v-26a.772.772,0,0,0-.867-.867H4.6a.868.868,0,0,0-.867.867V37.467Z" transform="translate(-2 -8)"/><path d="M11.733,26.733h.653l-1.344-6.052a2.583,2.583,0,0,1,.333-1.942l3.7-5.924A1.725,1.725,0,0,1,16.547,12h.772a1.723,1.723,0,0,1,1.47.815l3.7,5.924a2.588,2.588,0,0,1,.333,1.941l-1.345,6.053h.653a1.735,1.735,0,0,1,1.733,1.733V30.2a1.735,1.735,0,0,1-1.733,1.733v2.6A1.735,1.735,0,0,1,20.4,36.267H13.467a1.735,1.735,0,0,1-1.733-1.733v-2.6A1.735,1.735,0,0,1,10,30.2V28.467A1.735,1.735,0,0,1,11.733,26.733Zm5.2-6.933a.867.867,0,1,0,.867.867.867.867,0,0,0-.867-.867Zm4.09-.143L17.8,14.5v3.724a2.6,2.6,0,1,1-1.733,0V14.5l-3.222,5.156a.859.859,0,0,0-.111.648l1.428,6.428H19.7L21.134,20.3A.864.864,0,0,0,21.023,19.657ZM20.4,34.533v-2.6H13.467v2.6ZM11.733,30.2h10.4V28.467h-10.4V30.2Z" transform="translate(-6.533 -8.533)"/></g><g transform="translate(0 0)"><path d="M42.006,39.822,33.4,36.3a2.507,2.507,0,0,1-1.563-2.329v-.6a15.526,15.526,0,0,0,4.912-5.532h.12a4.2,4.2,0,0,0,4.194-4.194,4.147,4.147,0,0,0-.489-1.95,9.168,9.168,0,0,0,1.328-4.76V15.258a14.258,14.258,0,0,0-28.516,0V39.78l-.1.042A13.285,13.285,0,0,0,5,52.161V53H50.29v-.839a13.285,13.285,0,0,0-8.284-12.339Zm-8.49-1.661-1.984,4.959L28.962,40.55l3.952-2.634Zm-2.135-1.24-3.736,2.49L24.923,37.6a12.619,12.619,0,0,0,.206-2.209q0-.508-.034-1.013a15.405,15.405,0,0,0,2.285.97l.265.089.265-.088a15.676,15.676,0,0,0,2.28-.966A4.161,4.161,0,0,0,31.382,36.921Zm-6.893,2.4,1.839,1.226-2.571,2.571-.48-1.2A12.5,12.5,0,0,0,24.489,39.324Zm3.156-5.663a13.828,13.828,0,0,1-2.85-1.4,14.662,14.662,0,0,0-2.133-5.023l-.646-.969a11.394,11.394,0,0,1-1.92-6.34V16.89a7.576,7.576,0,0,0,5.98-4.169l.128-.257a16.9,16.9,0,0,0,10.666,4.45v3.669A13.861,13.861,0,0,1,27.645,33.661Zm9.9-7.6A15.526,15.526,0,0,0,38.5,21.75a2.491,2.491,0,0,1-.956,4.308Zm-22.482-10.8a12.581,12.581,0,0,1,25.161,0v1.677a7.51,7.51,0,0,1-.819,3.4,4.186,4.186,0,0,0-.859-.517V15.258H37.71a15.258,15.258,0,0,1-10.861-4.5L25.738,9.65l-1.161,2.322a5.916,5.916,0,0,1-5.319,3.286h-.839v4.672a13.064,13.064,0,0,0,2.2,7.27l.646.969a12.975,12.975,0,0,1,2.185,7.218A10.92,10.92,0,0,1,13.878,46.21a16.827,16.827,0,0,0,1.187-6.186Zm-1.771,26.4a15.14,15.14,0,0,1-1.5,5.1l-.606,1.214h1.357c.283,0,.56-.024.839-.043v3.4H6.707A11.6,11.6,0,0,1,13.294,41.656ZM41.9,51.323V46.29H40.226v5.032H15.065V47.714a12.581,12.581,0,0,0,7.053-4.18L23.145,46.1l4.5-4.5,4.5,4.5L35.069,38.8l6.3,2.579a11.608,11.608,0,0,1,7.212,9.947Z" transform="translate(-5 -1)"/><path d="M31,57h1.677v1.677H31Z" transform="translate(-9.194 -10.032)"/><path d="M31,53h1.677v1.677H31Z" transform="translate(-9.194 -9.387)"/><path d="M39,55h5.032v1.677H39Z" transform="translate(-10.484 -9.71)"/><path d="M33.734,8.5a8.8,8.8,0,0,0-1.775,1.916s-.71.463-1.215.12-.172-1.063-.172-1.063a10.466,10.466,0,0,1,2.113-2.281,7.292,7.292,0,0,1,4.84-1.878h1.339a.831.831,0,0,1,.7.86.768.768,0,0,1-.7.817H37.526A4.952,4.952,0,0,0,33.734,8.5Z" transform="translate(-16.749 -1.268)"/><path d="M95.976,289.82a1.014,1.014,0,1,1,.718-.3A1.022,1.022,0,0,1,95.976,289.82Zm0,0" transform="translate(-82.612 -277.774)"/></g></svg>