<svg xmlns="http://www.w3.org/2000/svg" width="65" height="52.001" viewBox="0 0 65 52.001"><g transform="translate(-508 -2262)"><rect width="65" height="52" transform="translate(508 2262)" fill="#fff"/><g transform="translate(519.701 2262.001)"><g transform="translate(30.602 43.533)"><path d="M347.02,429a1.02,1.02,0,1,0,1.02,1.02A1.02,1.02,0,0,0,347.02,429Z" transform="translate(-346 -429)"/></g><g transform="translate(10.201 43.533)"><path d="M147.02,429a1.02,1.02,0,1,0,1.02,1.02A1.02,1.02,0,0,0,147.02,429Z" transform="translate(-146 -429)"/></g><g transform="translate(0)"><path d="M86.971,38.31A11.511,11.511,0,0,0,82.4,34.227a1.017,1.017,0,0,0-.579-.265,10.711,10.711,0,0,0-4.195-.852h-3.06V30.43a11.644,11.644,0,0,0,3.661-5.75h.419a4.056,4.056,0,0,0,3-6.816c.064-.054.127-.111.187-.171a3.02,3.02,0,0,0,.9-2.154,3.053,3.053,0,0,0-2.075-2.884,11.222,11.222,0,0,0-8.185-9.912,3.24,3.24,0,0,0-3-2.743h-4.08a3.24,3.24,0,0,0-3,2.743A11.222,11.222,0,0,0,54.2,12.654a3.051,3.051,0,0,0-1.179.731,3.034,3.034,0,0,0,.188,4.478,4.056,4.056,0,0,0,3,6.817h.416a11.661,11.661,0,0,0,2.856,4.99c.256.266.528.519.809.759v2.68h-3.06a10.712,10.712,0,0,0-4.195.852,1.017,1.017,0,0,0-.579.265A11.632,11.632,0,0,0,46,44.586v6.4A1.018,1.018,0,0,0,47.02,52h40.8a1.018,1.018,0,0,0,1.02-1.016v-6.4A11.511,11.511,0,0,0,86.971,38.31ZM52.12,49.969H48.04V44.586a9.69,9.69,0,0,1,4.08-7.808Zm26.522-27.32H78.6c.03-.338.047-.677.047-1.016V18.586a2.031,2.031,0,1,1,0,4.063ZM62.321,4.889V9.445a1.02,1.02,0,0,0,2.04,0V3.352c0-.629.534-1.32,1.02-1.32h4.08c.486,0,1.02.691,1.02,1.32V9.445a1.02,1.02,0,0,0,2.04,0V4.889a9.189,9.189,0,0,1,6.063,7.6H56.258A9.189,9.189,0,0,1,62.321,4.889ZM56.2,22.648a2.031,2.031,0,1,1,0-4.062v3.047c0,.339.016.678.047,1.016Zm0-6.094h-1.02a1.019,1.019,0,0,1-1.02-1.016,1.019,1.019,0,0,1,1.02-1.016H79.663a1.019,1.019,0,0,1,1.02,1.016,1.019,1.019,0,0,1-1.02,1.016H56.2Zm2.226,6.925c0-.011,0-.022-.006-.033a9.328,9.328,0,0,1-.179-1.814V18.586H76.6v3.047a9.332,9.332,0,0,1-.179,1.813c0,.011,0,.022-.006.033a9.615,9.615,0,0,1-3.555,5.712,8.788,8.788,0,0,1-10.883,0,9.439,9.439,0,0,1-1.035-.927A9.617,9.617,0,0,1,58.426,23.48ZM66.4,49.969H58.241V47.633a1.02,1.02,0,0,0-2.04,0v2.336h-2.04V35.7a8.665,8.665,0,0,1,2.04-.5v6.338a1.02,1.02,0,0,0,2.04,0v-6.4h2.623L66.4,40.93Zm-4.08-16.25V31.827a10.785,10.785,0,0,0,10.2,0v1.892l-5.1,5.332Zm18.361,16.25h-2.04V47.633a1.02,1.02,0,0,0-2.04,0v2.336H68.442V40.93l5.537-5.789H76.6v6.4a1.02,1.02,0,0,0,2.04,0V35.2a8.667,8.667,0,0,1,2.04.5Zm6.12,0h-4.08V36.778a9.69,9.69,0,0,1,4.08,7.808Z" transform="translate(-46)"/></g></g></g></svg>