<svg xmlns="http://www.w3.org/2000/svg" width="65" height="52" viewBox="0 0 65 52"><g transform="translate(-0.311)"><rect width="65" height="52" transform="translate(0.311)" fill="#fff"/><g transform="translate(1 0)"><path d="M25.177,26.353a4.177,4.177,0,0,0,4.092-5.012h1.839a4.247,4.247,0,1,0,.773-1.671H28.5a4.169,4.169,0,1,0-3.32,6.683ZM35.2,19.671a2.506,2.506,0,1,1-2.506,2.506A2.509,2.509,0,0,1,35.2,19.671Zm-10.024,0a2.506,2.506,0,1,1-2.506,2.506A2.509,2.509,0,0,1,25.177,19.671Z" transform="translate(-7.635 -3.731)"/><path d="M41.857,39.823,33.287,36.3a2.506,2.506,0,0,1-1.557-2.329v-.6a15.513,15.513,0,0,0,5.646-7.21h.2a4.19,4.19,0,0,0,4.177-4.194V10.2A12.731,12.731,0,0,0,43.906,6a1.913,1.913,0,0,0-.31-1.691,2.013,2.013,0,0,0-2.452-.585l-1.925.966a4.831,4.831,0,0,1-5.166-.6A13.267,13.267,0,0,0,25.558,1h-.738A11.5,11.5,0,0,0,13.353,12.514v9.454a4.19,4.19,0,0,0,4.177,4.194h.2a15.517,15.517,0,0,0,5.646,7.21v.6A2.5,2.5,0,0,1,21.82,36.3l-8.57,3.52A13.285,13.285,0,0,0,5,52.161V53H50.107v-.839a13.283,13.283,0,0,0-8.25-12.338ZM20.171,43.08l-1.557-3.648,2.24-.92,2.1,7.717,1.8-1.81L24.394,47.3A8.024,8.024,0,0,1,20.171,43.08Zm6.505-.593.877-.881.877.881.662,5.314a7.176,7.176,0,0,1-3.077,0ZM30.715,47.3l-.359-2.884,1.8,1.81,2.1-7.717,2.24.92-1.557,3.648A8.028,8.028,0,0,1,30.715,47.3ZM32.7,37.871,31.3,43,28.775,40.46l3.3-2.9a4.32,4.32,0,0,0,.58.294Zm4.491-23.916a12.987,12.987,0,0,0,2.9-1.962v6.641a4.129,4.129,0,0,0-1.671-.775v-.6a5.022,5.022,0,0,0-1.227-3.3Zm.738,10.493a15.637,15.637,0,0,0,.489-3.864v-.979a2.5,2.5,0,0,1-.489,4.843ZM24.821,2.677h.738a11.594,11.594,0,0,1,7.425,2.7,6.532,6.532,0,0,0,6.983.814l1.926-.967a.331.331,0,0,1,.367.091.241.241,0,0,1,.043.214,11.22,11.22,0,0,1-10.711,8.052H30.35A11.094,11.094,0,0,1,24.16,11.7l-2.5-1.672-3.087,2.479a5.018,5.018,0,0,0-1.88,3.929v1.424a4.14,4.14,0,0,0-1.671.775V12.513a9.827,9.827,0,0,1,9.8-9.836Zm-9.8,19.29a2.512,2.512,0,0,1,1.671-2.362v.979a15.637,15.637,0,0,0,.49,3.864A2.509,2.509,0,0,1,15.024,21.968Zm3.341-1.383v-4.15a3.345,3.345,0,0,1,1.254-2.62L21.752,12.1l1.482.992a12.753,12.753,0,0,0,7.118,2.164h1.241a12.64,12.64,0,0,0,3.9-.617,3.341,3.341,0,0,1,1.25,2.618v3.326a13.857,13.857,0,0,1-9.189,13.076A13.856,13.856,0,0,1,18.365,20.585Zm8.925,14.76.264.088.264-.088a15.578,15.578,0,0,0,2.271-.966,4.171,4.171,0,0,0,.755,2.036L27.554,39.3l-3.291-2.891a4.177,4.177,0,0,0,.755-2.036A15.68,15.68,0,0,0,27.29,35.344Zm-4.258,2.217,3.3,2.9L23.8,43l-1.392-5.126.04-.017a4,4,0,0,0,.581-.293ZM41.754,51.323V46.29H40.084v5.032H15.024V46.29H13.353v5.032H6.7a11.606,11.606,0,0,1,7.183-9.948l3.185-1.308,1.568,3.674a9.687,9.687,0,0,0,17.836,0l1.568-3.674,3.185,1.308a11.6,11.6,0,0,1,7.183,9.947Z" transform="translate(-5 -1)"/></g><g transform="translate(37.729 2.074)"><path d="M32,208H46.785v7.392H32Zm1.478,5.914H45.306v-4.435H33.478Zm0,0" transform="translate(-25.848 -188.675)"/><path d="M46.785,318.785H32V304H46.785Zm-1.478-4.435H42.349v2.957h2.957Zm-7.392-4.435v2.957h2.957v-2.957Zm2.957-1.478v-2.957H37.914v2.957Zm-4.435,1.478H33.478v2.957h2.957Zm1.478,4.435v2.957h2.957v-2.957Zm4.435-1.478h2.957v-2.957H42.349Zm-5.914,4.435v-2.957H33.478v2.957Zm-2.957-8.871h2.957v-2.957H33.478Zm8.871-2.957v2.957h2.957v-2.957Zm0,0" transform="translate(-25.848 -275.699)"/><path d="M15.326,39.728c0,1.228,1,4.829,2.218,4.829H30.85a2.226,2.226,0,0,0,2.218-2.228V20.051a2.226,2.226,0,0,0-2.218-2.228H17.544a2.226,2.226,0,0,0-2.218,2.228v3.713H13.848V20.051a3.688,3.688,0,0,1,.755-2.223A11.026,11.026,0,0,1,13,14.852l-.267-.931h1.393l.157.531a6.89,6.89,0,0,0,1.433,2.39,3.642,3.642,0,0,1,1.505-.472A10.2,10.2,0,0,1,15.359,10.4l1.445.743c.8,4.284,1.842,4.679,2.482,5.2h8.338a6.667,6.667,0,1,0-10.82-5.2L15.359,10.4a8.133,8.133,0,1,1,14.375,5.941H30.85a3.694,3.694,0,0,1,.657.067A9.655,9.655,0,0,0,23.458,1.485a9.815,9.815,0,0,0-8.937,6.1,5.218,5.218,0,0,0-.53,1.532H12.583a5.93,5.93,0,0,1,.6-2.159,11.082,11.082,0,0,1,21.368,4.183,11.093,11.093,0,0,1-1.638,5.83,3.717,3.717,0,0,1,1.638,3.082V42.329a3.709,3.709,0,0,1-3.7,3.713H18.393l-.335-.263c-.736,0-.77-2.23-1.787-2.938-.58-.327-2.424-1.805-2.424-3.114V25.249h1.478Zm0,1.3" transform="translate(-10.653)"/><path d="M347.016,429a1.016,1.016,0,1,0,1.016,1.016A1.016,1.016,0,0,0,347.016,429Z" transform="translate(-344.48 -418.514)"/><path d="M20.462,14.917V13.3A2.212,2.212,0,0,0,19.723,9a.739.739,0,1,1,.739-.739H21.94a2.215,2.215,0,0,0-1.479-2.082V4.568H18.983V6.182a2.212,2.212,0,0,0,.739,4.3.739.739,0,1,1-.739.739H17.5A2.215,2.215,0,0,0,18.983,13.3v1.615Z" transform="translate(-6.974 1.346)"/></g></g></svg>