<svg xmlns="http://www.w3.org/2000/svg" width="65" height="52" viewBox="0 0 65 52"><g transform="translate(0 0)"><rect width="64.509" height="51.607" transform="translate(0.043 0.099)" fill="#fff"/><g transform="translate(0 0)"><g transform="translate(0 0)"><path d="M51.844,349v-5.029H50.17V349H41.2l3.426-2.282-1.56-2.339,3.451-1.289a.9.9,0,0,0,.14-1.041c-.333-.541-1.2-.354-1.2-.354l-4.96,1.857,1.8,2.707L38.169,349h-.46l.631-1.313c.137-.283,2.387-4.972,4.033-8.671a8.064,8.064,0,0,1-1.433-2.59H33.5c-.186-.439-.346-.832-.475-1.17a4.165,4.165,0,0,0,2.014-3.2h0a15.48,15.48,0,0,0,2.28.965l.26.09.26-.09a15.622,15.622,0,0,0,2.28-.965,2.367,2.367,0,0,0,1.078,1.922,3.51,3.51,0,0,1,.581-1.922s0-.091,0-.405v-.6a15.517,15.517,0,0,0,5.67-7.207h.2a4.2,4.2,0,0,0,4.194-4.192v-6.705A14.273,14.273,0,0,0,37.584,298.7H23.325v.838a10.865,10.865,0,0,0,.3,2.516H20.658l.163.976a12.851,12.851,0,0,0,2.973,6.326,14.325,14.325,0,0,0-.468,3.6v6.708a4.2,4.2,0,0,0,4.194,4.191h.2a15.507,15.507,0,0,0,5.67,7.2v.6a2.5,2.5,0,0,1-1.56,2.327l-8.606,3.52a13.279,13.279,0,0,0-8.288,12.335v.838L52.4,350.7a.778.778,0,0,0,.675-.84.766.766,0,0,0-.675-.829Zm-1.819-28.517A2.5,2.5,0,0,1,48,322.141a15.559,15.559,0,0,0,.491-3.863V317.3A2.5,2.5,0,0,1,50.025,320.487ZM25,319.66h0a2.512,2.512,0,0,1,1.677-2.361v.979a15.559,15.559,0,0,0,.491,3.863A2.512,2.512,0,0,1,25,319.66Zm0-3.328v-3.379a12.677,12.677,0,0,1,.2-2.216,12.5,12.5,0,0,0,1.474,1.1v3.718A4.164,4.164,0,0,0,25.005,316.332Zm-2.325-12.595,1.487-.005a10.92,10.92,0,0,0,10.063,6.705H40.1v-1.676H34.23a9.237,9.237,0,0,1-9.189-8.384H37.584A12.594,12.594,0,0,1,50.17,312.954v3.379a4.184,4.184,0,0,0-1.755-.78,4.2,4.2,0,0,0-4.116-3.431H33.529A11.167,11.167,0,0,1,22.681,303.738Zm5.671,14.54h.009v-5.557a12.941,12.941,0,0,0,5.172,1.071H44.3a2.52,2.52,0,0,1,2.516,2.516v1.97a13.855,13.855,0,0,1-9.231,13.072A13.855,13.855,0,0,1,28.352,318.278ZM25,349.007v-5.032H23.325V349H16.644a11.6,11.6,0,0,1,7.213-9.942h0l3.171-1.3-1.4,4.2,6.477,2.426-1.56,2.34,3.425,2.282Zm12,0-4.121-2.743,1.8-2.7-6.944-2.608,1.344-4.03,2.413-.986c1.287,3.3,5.159,11.376,5.338,11.751l.632,1.314Zm-2.774-10.9H40.94c-1.09,2.459-2.5,5.468-3.36,7.277C36.73,343.572,35.315,340.561,34.226,338.105Z" transform="translate(-14.937 -298.701)"/></g><g transform="translate(27.536 23.963)"><path d="M71.949,333.18a7.541,7.541,0,0,0-8.927-11.375v-2.591a2.058,2.058,0,0,0-4.063-.469l-.334.152c-4.634,2.106-6.512,3.374-11.072,3.374H44.806a2.059,2.059,0,0,0-1.933,1.374H40v1.373a4.121,4.121,0,1,0,0,8.243v1.374h2.873a2.055,2.055,0,0,0,1.935,1.37h2.747c.222,0,.454,0,.686.009v9.12h6.869v-1.156l-.1-7.134a24.962,24.962,0,0,1,3.625,1.92l.334.152a2.058,2.058,0,0,0,4.063-.469v-2.591a7.5,7.5,0,0,0,7.967-1.56l-.949-.993a6.118,6.118,0,0,1-7.021,1.048V323.313a6.172,6.172,0,0,1,7.8,9.075ZM40,331.888a2.748,2.748,0,1,1,0-5.5Zm2.747,1.374H41.373v-8.244h1.373Zm4.121-8.243H45.5v1.373h1.369v5.5H45.5v1.374h1.369v1.374H44.806a.687.687,0,0,1-.686-.686v-9.621a.688.688,0,0,1,.686-.686h2.061Zm2.747,18.964v-7.914c1.288.068,2.686.2,4.121.39v7.521Zm9.287-6.594c-4.583-2-6.057-2.659-10.661-2.747v-1.381h1.374v-1.373H48.241v-5.5h1.374v-1.374H48.241v-1.381c4.6-.088,6.077-1.365,10.661-3.365Zm2.747,1.06a.687.687,0,1,1-1.374,0V319.214a.687.687,0,0,1,1.374,0Z" transform="translate(-35.877 -317.152)"/><g transform="translate(14.898 5.429)"><path d="M53.345,321.328a21.386,21.386,0,0,1-6.009,1.874l.088,1.366a21.978,21.978,0,0,0,6.183-1.929Z" transform="translate(-47.336 -321.328)"/></g><g transform="translate(27.83 6.87)"><path d="M59.345,326.557a.686.686,0,1,1,.686-.686h1.374a2.059,2.059,0,0,0-1.374-1.935v-1.5H58.659v1.5a2.055,2.055,0,0,0,.686,4,.686.686,0,1,1-.686.687H57.284a2.056,2.056,0,0,0,1.374,1.935v1.5h1.373v-1.5a2.056,2.056,0,0,0-.686-4Z" transform="translate(-57.282 -322.436)"/></g><g transform="translate(33.112 11.429)"><rect width="1.183" height="1.183"/></g></g></g></g></svg>