<svg xmlns="http://www.w3.org/2000/svg" width="65" height="52" viewBox="0 0 65 52"><g transform="translate(-437 -2194)"><rect width="65" height="52" transform="translate(437 2194)" fill="#fff"/><g transform="translate(447.4 2194)"><path d="M42.006,39.822l-4.5-1.84a6.727,6.727,0,0,0-3.5-4.391l1.588-.529A9.213,9.213,0,0,0,41.9,24.309V15.258a14.258,14.258,0,1,0-28.516,0v9.051A9.215,9.215,0,0,0,19.7,33.062l1.588.529a6.729,6.729,0,0,0-3.5,4.391l-4.5,1.84A13.283,13.283,0,0,0,5,52.161V53H50.29v-.839a13.285,13.285,0,0,0-8.284-12.339ZM35.38,37.111,33.4,36.3a2.5,2.5,0,0,1-1.47-1.663,5.042,5.042,0,0,1,3.448,2.473Zm1.491,14.212a4.194,4.194,0,1,1,4.194-4.194A4.2,4.2,0,0,1,36.871,51.323ZM19.258,39.581c0-.134.01-.267.02-.4l1.61-.658.394-.174,3.583,2.107-.759,6.5a7.062,7.062,0,0,0-.493-1.65,4.119,4.119,0,0,0-1.493-1.883,5.465,5.465,0,0,0-2.863-1.257ZM36.871,21.968a.84.84,0,0,1-.839.839H31a.84.84,0,0,1-.839-.839V20.29A.84.84,0,0,1,31,19.452h5.032a.84.84,0,0,1,.839.839Zm0-4.039a2.488,2.488,0,0,0-.839-.154H31a2.513,2.513,0,0,0-2.362,1.677H26.651a2.513,2.513,0,0,0-2.362-1.677H19.257a2.488,2.488,0,0,0-.839.154v-.993h.5a11.944,11.944,0,0,0,8.725-3.755,11.95,11.95,0,0,0,8.726,3.755h.5ZM19.258,19.452H24.29a.84.84,0,0,1,.839.839v1.677a.84.84,0,0,1-.839.839H19.258a.84.84,0,0,1-.839-.839V20.29A.84.84,0,0,1,19.258,19.452Zm0,5.032H24.29a2.519,2.519,0,0,0,2.516-2.516v-.839h1.677v.839A2.519,2.519,0,0,0,31,24.484h5.032a2.421,2.421,0,0,0,.283-.029,13.775,13.775,0,0,1-8.671,9.206,13.775,13.775,0,0,1-8.671-9.207,2.254,2.254,0,0,0,.283.029Zm11.576,14.7-2.1-1.573,3.284-.164a4.193,4.193,0,0,0,.749.41l.081.034Zm-6.378-2.934a4.17,4.17,0,0,0,.643-1.877,15.739,15.739,0,0,0,2.28.972l.265.089.265-.088a15.739,15.739,0,0,0,2.28-.972,4.17,4.17,0,0,0,.643,1.877l-3.189.052Zm-1.184,1.2,3.284.164-1.691,1.573-2.424-1.294.081-.034A4.193,4.193,0,0,0,23.272,37.444Zm4.373,1.489V51.323h0V38.933Zm8.387.647v1.745a9.01,9.01,0,0,0-3.051,1.415c-.81.815-.95.632-1.851,3.26l-2.4-.335V38.933L31,40.457l3.007-2.107,2.005.833c.01.132.02.264.02.4Zm4.194-15.271a7.54,7.54,0,0,1-5.161,7.162l-1.443.481A15.484,15.484,0,0,0,38.364,22.9a2.5,2.5,0,0,0,.185-.936V17.09a2.513,2.513,0,0,1,1.677,2.362ZM27.645,2.677A12.6,12.6,0,0,1,40.226,15.258v.861a4.15,4.15,0,0,0-2.516-.861H36.37A10.287,10.287,0,0,1,28.3,11.379l-.654-.819-.655.819a10.285,10.285,0,0,1-8.07,3.879H17.581a4.15,4.15,0,0,0-2.516.861v-.861A12.6,12.6,0,0,1,27.645,2.677ZM15.065,24.309V19.452a2.513,2.513,0,0,1,1.677-2.362v4.878a2.5,2.5,0,0,0,.185.936,15.484,15.484,0,0,0,4.742,9.048l-1.443-.481a7.54,7.54,0,0,1-5.161-7.162Zm8.294,10.329a2.5,2.5,0,0,1-1.47,1.663l-1.978.809A5.042,5.042,0,0,1,23.359,34.638Zm-9.44,6.737,3.662-1.5v2.286a5.875,5.875,0,0,0-5.032,5.8v1.677h1.677V47.967a4.194,4.194,0,1,1,8.387,0v1.677H24.29V47.967c0-.082-.181-.931-.184-1.012l.759-6.5,2.278-1.933v12.8H6.707a11.607,11.607,0,0,1,7.212-9.946Zm14.815,9.947V45.665l2.4.335c.043.457-.106,1.248,0,2.315a6.07,6.07,0,0,0,1.64,3.008Zm12.238,0a5.859,5.859,0,0,0-3.262-10V39.877l3.662,1.5a11.608,11.608,0,0,1,7.212,9.947H40.971Z" transform="translate(-5 -1)"/><path d="M42.516,53a2.516,2.516,0,1,0,2.516,2.516A2.519,2.519,0,0,0,42.516,53Zm0,3.355a.839.839,0,1,1,.839-.839A.84.84,0,0,1,42.516,56.355Z" transform="translate(-10.645 -9.387)"/><path d="M37.95,8.588A8.8,8.8,0,0,1,39.725,10.5s.71.463,1.215.12.172-1.063.172-1.063A10.426,10.426,0,0,0,32.5,5H31.161a.831.831,0,0,0-.7.86.768.768,0,0,0,.7.817H32.5A8.765,8.765,0,0,1,37.95,8.588Z" transform="translate(-9.355 -1.1)"/><path d="M95.977,289.82a1.014,1.014,0,1,0-.718-.3A1.023,1.023,0,0,0,95.977,289.82Zm0,0" transform="translate(-63.761 -277.513)"/></g></g></svg>