<svg xmlns="http://www.w3.org/2000/svg" width="65" height="52" viewBox="0 0 65 52"><g transform="translate(-655 -2106)"><rect width="65" height="52" transform="translate(655 2106)" fill="#fff"/><g transform="translate(661.5 2106)"><path d="M4.014,38.317l8.566-2.857V33.722a9.254,9.254,0,0,1-3.849-5.256,4.184,4.184,0,0,1-3.7-4.143v-6.71A12.573,12.573,0,0,1,29.761,14.4c.149-.169.29-.345.45-.5L34.97,9.134,31.5,4.279a2.492,2.492,0,0,1-.469-1.462v-.3A2.519,2.519,0,0,1,33.548,0a2.667,2.667,0,0,1,2.1,1.125c.366.417.511.552.838.552s.472-.135.839-.553a2.52,2.52,0,0,1,4.2,0c.364.417.51.552.835.552s.471-.135.835-.552A2.663,2.663,0,0,1,45.29,0a2.519,2.519,0,0,1,2.516,2.516v.3a2.494,2.494,0,0,1-.469,1.462L43.869,9.134l4.759,4.759a11.514,11.514,0,0,1-8.141,19.655H38.352a11.537,11.537,0,0,1-9.976-5.777,4.154,4.154,0,0,1-1.882.695,9.248,9.248,0,0,1-3.849,5.256V35.46l8.566,2.856a5.863,5.863,0,0,1,4.015,5.569V52H0V43.885A5.862,5.862,0,0,1,4.014,38.317ZM8.422,26.7c-.018-.231-.035-.461-.035-.7V21.961A2.5,2.5,0,0,0,8.422,26.7ZM17.613,6.71a10.916,10.916,0,0,0-10.9,10.9v3.377a4.152,4.152,0,0,1,1.677-.775V18.452H10.9a7.586,7.586,0,0,0,6.039-3.02l.671-.893.671.893a7.586,7.586,0,0,0,6.039,3.02h2.516v1.762a4.163,4.163,0,0,1,1.677.775V17.613A10.916,10.916,0,0,0,17.613,6.71ZM46.129,2.817v-.3a.839.839,0,0,0-.839-.839c-.326,0-.471.135-.835.552a2.518,2.518,0,0,1-4.2,0c-.365-.417-.51-.552-.835-.552s-.471.135-.838.552a2.522,2.522,0,0,1-4.2,0c-.367-.418-.512-.553-.839-.553a.839.839,0,0,0-.839.839v.3a.83.83,0,0,0,.156.487L36.5,8.387h5.847L45.973,3.3A.828.828,0,0,0,46.129,2.817ZM38.353,31.871h2.134a9.836,9.836,0,0,0,6.955-16.792l-5.015-5.015H36.412L31.4,15.079a9.848,9.848,0,0,0-1.253,1.555c.025.324.05.648.05.979v6.71a4.146,4.146,0,0,1-.614,2.153A9.856,9.856,0,0,0,38.353,31.871Zm-9.836-7.548a2.513,2.513,0,0,0-1.677-2.362V26c0,.235-.018.465-.035.7A2.512,2.512,0,0,0,28.516,24.323ZM25.161,26V20.129h-.839a9.274,9.274,0,0,1-6.71-2.9,9.274,9.274,0,0,1-6.71,2.9h-.839V26a7.548,7.548,0,0,0,15.1,0Zm-7.548,9.226a9.16,9.16,0,0,1-3.355-.641v1.132l3.355,3.355,3.355-3.355V34.585A9.16,9.16,0,0,1,17.613,35.226ZM10.065,46.968h1.677a4.2,4.2,0,0,1,4.109,3.355h3.524a4.2,4.2,0,0,1,4.109-3.355h1.677V41.935h-15.1Zm23.484-3.083a4.188,4.188,0,0,0-2.867-3.978l-8.648-2.883L18.8,40.258h8.04v6.71h1.677V43.613h1.677v5.032h-6.71a2.513,2.513,0,0,0-2.362,1.677H33.548ZM1.677,50.323H14.1a2.513,2.513,0,0,0-2.362-1.677H5.032V43.613H6.71v3.355H8.387v-6.71h8.04l-3.234-3.234L4.545,39.907a4.189,4.189,0,0,0-2.868,3.978Zm0,0" transform="translate(0)"/><path d="M91.355,131.355a1.679,1.679,0,0,1,1.678,1.677h1.678a3.35,3.35,0,0,0-2.517-3.236V128H90.517v1.8a3.348,3.348,0,0,0,.839,6.591,1.677,1.677,0,1,1-1.678,1.677H88a3.35,3.35,0,0,0,2.517,3.236v1.8h1.678v-1.8a3.348,3.348,0,0,0-.839-6.591,1.677,1.677,0,1,1,0-3.355Zm0,0" transform="translate(-51.935 -114.581)"/><path d="M3.27,3.187A8.8,8.8,0,0,0,1.5,5.1s-.71.463-1.215.12S.108,4.16.108,4.16A10.466,10.466,0,0,1,2.221,1.878,7.292,7.292,0,0,1,7.062,0H8.4a.831.831,0,0,1,.7.86.768.768,0,0,1-.7.817H7.062A4.952,4.952,0,0,0,3.27,3.187Z" transform="translate(51.623 22.473) rotate(133)"/><path d="M1.016,2.031A1.014,1.014,0,0,1,0,1.016,1.016,1.016,0,0,1,1.016,0,1.016,1.016,0,0,1,2.031,1.016,1.014,1.014,0,0,1,1.016,2.031Zm0,0" transform="translate(48.185 17.4) rotate(133)"/></g></g></svg>