<svg xmlns="http://www.w3.org/2000/svg" width="65" height="52" viewBox="0 0 65 52"><g transform="translate(-588 -2148)"><rect width="65" height="52" transform="translate(588 2148)" fill="#fff"/><g transform="translate(588 2148)"><path d="M13.891,39.822l8.6-3.52a2.506,2.506,0,0,0,1.563-2.329v-.6a15.534,15.534,0,0,1-4.912-5.532h-.12A12.6,12.6,0,0,1,6.446,40.419H5L7.525,36a10.928,10.928,0,0,0,1.437-5.41V14.419A13.411,13.411,0,0,1,31.727,4.8,14.269,14.269,0,0,1,42.511,18.613,5.859,5.859,0,0,1,41.363,22.1a4.142,4.142,0,0,1,.309,1.546,4.2,4.2,0,0,1-4.194,4.194h-.12a15.519,15.519,0,0,1-4.912,5.532v.6A2.5,2.5,0,0,0,34.01,36.3l8.6,3.52A13.286,13.286,0,0,1,50.9,52.161V53H5.607v-.839A13.284,13.284,0,0,1,13.891,39.822Zm3.5-18.073a2.491,2.491,0,0,0,.957,4.309A15.5,15.5,0,0,1,17.4,21.749ZM22.382,2.677A11.755,11.755,0,0,0,10.64,14.419V30.591a12.6,12.6,0,0,1-1.658,6.242l-1.031,1.8a10.919,10.919,0,0,0,9.4-10.8v-.356a4.2,4.2,0,0,1-2.516-3.838,4.142,4.142,0,0,1,.309-1.546,5.861,5.861,0,0,1-1.148-3.487A14.274,14.274,0,0,1,28.253,4.355c.059,0,.115.008.174.008a11.662,11.662,0,0,0-6.045-1.686Zm5.871,3.355A12.6,12.6,0,0,0,15.672,18.613a4.178,4.178,0,0,0,.507,1.967,4.187,4.187,0,0,1,1.214-.777,7.939,7.939,0,0,1,5.687-6.815l1.042-.3,1.7.753a30.586,30.586,0,0,0,12.5,2.653h.839v3.721a4.183,4.183,0,0,1,1.171.762,4.166,4.166,0,0,0,.507-1.967A12.6,12.6,0,0,0,28.253,6.032ZM40,23.645a2.493,2.493,0,0,0-.885-1.9,15.519,15.519,0,0,1-.956,4.308A2.511,2.511,0,0,0,40,23.645Zm-2.516-3.06V17.764a32.24,32.24,0,0,1-12.344-2.786L24,14.471l-.457.13a6.249,6.249,0,0,0-4.513,5.983,13.862,13.862,0,0,0,9.226,13.077A13.862,13.862,0,0,0,37.479,20.585Zm-4.1,17.27A4.172,4.172,0,0,1,30.8,34.376a15.583,15.583,0,0,1-2.281.966l-.265.09-.265-.088a15.676,15.676,0,0,1-2.281-.966,4.171,4.171,0,0,1-2.576,3.478l-1.305.534a7.424,7.424,0,0,0,12.853,0Zm8.6,3.521-.662-.271-.393,1.574.628.628a6.122,6.122,0,0,1,.568,8.016h7.072a11.607,11.607,0,0,0-7.213-9.947Zm-2.239,9.947a4.461,4.461,0,0,0,.627-6.83l-1.3-1.3.683-2.73-3.5-1.431a9.118,9.118,0,0,1-16,0l-3.5,1.431.683,2.73-1.3,1.3a4.461,4.461,0,0,0,.627,6.83Zm-25.353,0a6.124,6.124,0,0,1,.568-8.016l.628-.628L15.189,41.1l-.662.271a11.608,11.608,0,0,0-7.213,9.947h7.072Z" transform="translate(-5 -1)"/></g><g transform="translate(626.35 2167.624)"><path d="M51.5,33.1h-21a2.4,2.4,0,0,0-2.464,1.75v14A2.621,2.621,0,0,0,30.5,50.6h5.25v1.75H34V54.1H48v-1.75h-1.75V50.6H51.5a2.628,2.628,0,0,0,2.625-2.625V35.722A2.628,2.628,0,0,0,51.5,33.1ZM29.62,35.722a.876.876,0,0,1,.875-.875h21a.876.876,0,0,1,.875.875v9.625H29.62ZM44.5,52.347h-7V50.6h7Zm7-3.5h-21a.876.876,0,0,1-.875-.875V47.1H52.37v.875A.876.876,0,0,1,51.5,48.847Zm0,0" transform="translate(-28.031 -33.095)"/><path d="M404.249,344.251l4.434-3.325-4.434-3.325L403.2,339l2.566,1.925-2.566,1.925Zm0,0" transform="translate(-387.26 -333.925)"/><path d="M304.148,342.852l-2.566-1.925L304.148,339l-1.05-1.4-4.434,3.325,4.434,3.325Zm0,0" transform="translate(-294.159 -333.925)"/><path d="M354.773,339.205l3.03-7.2,1.614.68-3.031,7.2Zm0,0" transform="translate(-344.131 -328.943)"/></g></g></svg>