<svg xmlns="http://www.w3.org/2000/svg" width="65" height="52" viewBox="0 0 65 52"><g transform="translate(0 0.203)"><rect width="64.741" height="51.792" transform="translate(0.196 -0.203)" fill="#fff"/><g transform="translate(0 -0.034)"><path d="M41.923,39.7l-8.585-3.509a2.5,2.5,0,0,1-1.56-2.322v-.6a15.477,15.477,0,0,0,5.656-7.186h.2A4.187,4.187,0,0,0,41.82,21.9V15.212a14.226,14.226,0,0,0-28.452,0V21.9a4.187,4.187,0,0,0,4.184,4.18h.2a15.473,15.473,0,0,0,5.656,7.186v.6a2.5,2.5,0,0,1-1.56,2.321L13.265,39.7A13.243,13.243,0,0,0,5,52v.836H50.188V52a13.241,13.241,0,0,0-8.265-12.3Zm-6.869,2.739-3.4,2.549,2.254-6.757.476.195ZM20.8,38.422l.476-.195,2.254,6.757-3.4-2.549Zm2.817,6.821L25.6,51.16H25.43l-3.454-3.45Zm-.65-7.235a5.82,5.82,0,0,0,9.245,0L27.828,51.16H27.36Zm8.595,7.235,1.645,2.467-3.454,3.45h-.167Zm4.4-23.343H30.941a.837.837,0,0,1-.837-.836V19.392a.837.837,0,0,1,.837-.836h5.021a.837.837,0,0,1,.837.836v1.129c0,.226-.015.449-.026.672A.827.827,0,0,1,35.962,21.9Zm-7.377-3.344H26.6a2.507,2.507,0,0,0-2.356-1.672H19.225a2.484,2.484,0,0,0-.837.154V15.685l3.218-1.929,2.562,2.559,3.426-2.567,3.426,2.567,2.562-2.559L36.8,15.685v1.353a2.484,2.484,0,0,0-.837-.154H30.941A2.507,2.507,0,0,0,28.585,18.556Zm-10.17,2.638c-.011-.223-.026-.446-.026-.672V19.392a.837.837,0,0,1,.837-.836h5.021a.837.837,0,0,1,.837.836v1.672a.837.837,0,0,1-.837.836H19.226A.827.827,0,0,1,18.415,21.193Zm19.567,3.179a15.47,15.47,0,0,0,.454-2.958,2.424,2.424,0,0,0,.036-.351V19.546a2.494,2.494,0,0,1-.49,4.827ZM27.594,2.672a12.56,12.56,0,0,1,12.552,12.54v3.366a4.146,4.146,0,0,0-1.674-.772V14.74l-5.151-3.087-2.459,2.457-3.269-2.45-3.269,2.449-2.459-2.457-5.151,3.087V17.8a4.157,4.157,0,0,0-1.674.772V15.212A12.56,12.56,0,0,1,27.594,2.672ZM15.042,21.9a2.5,2.5,0,0,1,1.674-2.354v1.518a2.546,2.546,0,0,0,.035.351,15.47,15.47,0,0,0,.454,2.958A2.5,2.5,0,0,1,15.042,21.9Zm3.681,1.621a2.491,2.491,0,0,0,.5.051h5.021a2.512,2.512,0,0,0,2.51-2.508v-.836h1.674v.836a2.512,2.512,0,0,0,2.51,2.508h5.021a2.491,2.491,0,0,0,.5-.051,13.815,13.815,0,0,1-8.871,10.034,13.815,13.815,0,0,1-8.871-10.034Zm8.607,11.711.264.089.264-.088a15.648,15.648,0,0,0,2.275-.963,4.152,4.152,0,0,0,1.017,2.362,4.175,4.175,0,0,1-7.114,0,4.152,4.152,0,0,0,1.017-2.362,15.566,15.566,0,0,0,2.276.963ZM13.9,41.245l5.084-2.078-.667,4,3.12,2.338-1.616,2.42,3.242,3.237H15.042V46.144H13.368V51.16H6.7A11.57,11.57,0,0,1,13.9,41.245ZM41.82,51.16V46.144H40.146V51.16H32.124l3.241-3.238L33.749,45.5l3.12-2.338-.667-4,5.084,2.078a11.571,11.571,0,0,1,7.2,9.915H41.82Z" transform="translate(-5 -1)"/><path d="M2.948,2.874A7.93,7.93,0,0,0,1.348,4.6s-.64.418-1.1.108S.1,3.75.1,3.75A9.436,9.436,0,0,1,2,1.693,6.574,6.574,0,0,1,6.367,0H7.574A.749.749,0,0,1,8.2.775a.693.693,0,0,1-.628.737H6.367A4.465,4.465,0,0,0,2.948,2.874Z" transform="matrix(0.999, -0.035, 0.035, 0.999, 14.602, 3.346)"/><path d="M.916,1.831A.914.914,0,0,1,0,.916.916.916,0,0,1,.916,0a.916.916,0,0,1,.916.916.914.914,0,0,1-.916.916Zm0,0" transform="matrix(0.999, -0.035, 0.035, 0.999, 13.558, 8.765)"/></g><g transform="translate(37.221 14.588)"><path d="M112,131.205h7.479V128H112Zm3.205-1.068v-1.068h1.068v1.068Zm3.205,0h-1.068v-1.068h1.068Zm-5.342-1.068h1.068v1.068h-1.068Zm0,0" transform="translate(-109.863 -119.453)"/><path d="M337.6,272a1.6,1.6,0,1,0,1.6,1.6A1.6,1.6,0,0,0,337.6,272Zm0,2.137a.534.534,0,1,1,.534-.534A.535.535,0,0,1,337.6,274.137Zm0,0" transform="translate(-318.905 -253.837)"/><path d="M112,275.205h7.479V272H112Zm3.205-1.068v-1.068h1.068v1.068Zm3.205,0h-1.068v-1.068h1.068Zm-5.342-1.068h1.068v1.068h-1.068Zm0,0" transform="translate(-109.863 -253.837)"/><path d="M300.808,56a4.808,4.808,0,1,0,4.808,4.808A4.813,4.813,0,0,0,300.808,56Zm0,8.547a3.739,3.739,0,1,1,3.739-3.739A3.744,3.744,0,0,1,300.808,64.547Zm0,0" transform="translate(-281.576 -52.261)"/><path d="M330.671,88a2.671,2.671,0,1,0,2.671,2.671A2.674,2.674,0,0,0,330.671,88Zm0,4.274a1.6,1.6,0,1,1,1.6-1.6A1.6,1.6,0,0,1,330.671,92.274Zm0,0" transform="translate(-311.439 -82.124)"/><path d="M32.485,10.562V6.533l-2.1-.555q-.034-.086-.072-.173l1.094-1.878L28.557,1.079,26.679,2.173,26.506,2.1,25.953,0H21.924L21.37,2.1c-.058.023-.116.047-.173.072L19.319,1.079,16.47,3.928l1.094,1.878q-.038.086-.072.173l-1.637.432H6.309a1.6,1.6,0,0,0-1.6,1.6v4.274a1.6,1.6,0,0,0,1.6,1.6h.534v2.137H6.309a1.6,1.6,0,0,0-1.6,1.6V21.9a1.6,1.6,0,0,0,1.6,1.6H25.541a1.6,1.6,0,0,0,1.6-1.6V17.629A1.6,1.6,0,0,0,26.2,16.17l.31-1.176c.058-.023.116-.047.173-.072l1.878,1.094,2.848-2.848-1.094-1.878q.038-.086.072-.173ZM5.775,12.287V8.013a.535.535,0,0,1,.534-.534h9.082v3.083l2.1.555q.034.086.072.173l-.893,1.532H6.309A.535.535,0,0,1,5.775,12.287Zm2.137,1.6h9.281l2.126,2.126L21.2,14.922l.173.072.272,1.033H7.912ZM26.075,21.9a.535.535,0,0,1-.534.534H6.309a.535.535,0,0,1-.534-.534V17.629a.535.535,0,0,1,.534-.534H25.541a.535.535,0,0,1,.534.534Zm3.994-8.909-1.684,1.684-1.651-.962-.256.123a5.717,5.717,0,0,1-.594.247l-.268.094-.487,1.846H22.747l-.487-1.846-.268-.094a6.015,6.015,0,0,1-.594-.247l-.256-.123-1.651.962-1.684-1.684.961-1.65-.122-.255a5.977,5.977,0,0,1-.248-.595l-.094-.267-1.846-.488V7.356L18.3,6.869,18.4,6.6a5.876,5.876,0,0,1,.248-.595l.122-.255L17.807,4.1l1.684-1.684,1.651.962.256-.123a5.717,5.717,0,0,1,.594-.247l.268-.094.487-1.846h2.382l.487,1.846.268.094a6.014,6.014,0,0,1,.594.247l.256.123,1.651-.962L30.069,4.1l-.961,1.65.122.255a5.977,5.977,0,0,1,.248.595l.094.267,1.846.488V9.739l-1.846.487-.094.267a5.876,5.876,0,0,1-.248.595l-.122.255Zm0,0" transform="translate(-4.706)"/></g></g></svg>