<svg xmlns="http://www.w3.org/2000/svg" width="65" height="52" viewBox="0 0 65 52"><rect width="64.274" height="51.419" transform="translate(0.311 0.098)" fill="#fff"/><g transform="translate(0 0)"><path d="M42.976,40.232a3.232,3.232,0,0,0,.672-2.047,3.488,3.488,0,0,0-1.043-2.5,1.876,1.876,0,0,1,0-2.819,3.523,3.523,0,0,0,0-5,1.883,1.883,0,0,1,0-2.826,3.531,3.531,0,0,0,0-5.009,1.9,1.9,0,0,1-.639-1.413v-5.8A6.841,6.841,0,0,0,36.54,6.1l-.406-.486A12.86,12.86,0,0,0,13.4,13.833v4.78a1.9,1.9,0,0,1-.639,1.413,3.531,3.531,0,0,0,0,5.009,1.883,1.883,0,0,1,0,2.826,3.523,3.523,0,0,0,0,5,1.876,1.876,0,0,1,0,2.819,3.488,3.488,0,0,0-1.043,2.5,3.232,3.232,0,0,0,.672,2.047A13.274,13.274,0,0,0,5,52.161V53H50.37v-.839A13.274,13.274,0,0,0,42.976,40.232ZM14.04,36.775a3.522,3.522,0,0,0,0-5,1.879,1.879,0,0,1,0-2.821,3.528,3.528,0,0,0,0-5.007,1.883,1.883,0,0,1,0-2.826,3.5,3.5,0,0,0,1.042-2.5v-4.78A11.18,11.18,0,0,1,34.843,6.691l.8.955.308.051a5.171,5.171,0,0,1,4.339,5.114v5.8a3.5,3.5,0,0,0,1.042,2.5,1.883,1.883,0,0,1,0,2.826,3.528,3.528,0,0,0,0,5.007,1.879,1.879,0,0,1,0,2.821,3.522,3.522,0,0,0,0,5,1.893,1.893,0,0,1,.638,1.41,1.826,1.826,0,0,1-.591,1.354L33.452,36.3a2.507,2.507,0,0,1-1.566-2.329v-.6a15.52,15.52,0,0,0,6.721-12.786,5.337,5.337,0,0,0-5.336-5.327H22.1a5.337,5.337,0,0,0-5.336,5.327,15.519,15.519,0,0,0,6.721,12.786v.6A2.506,2.506,0,0,1,21.918,36.3l-7.925,3.237a1.823,1.823,0,0,1-.591-1.353,1.893,1.893,0,0,1,.638-1.41Zm19.64,2.805H21.69l-.926-.995,1.79-.731a4.172,4.172,0,0,0,2.58-3.477,15.625,15.625,0,0,0,2.284.966l.266.088.265-.088a15.717,15.717,0,0,0,2.284-.966,4.168,4.168,0,0,0,2.58,3.477l1.79.731Zm-1.56,1.677-2.226,2.394a3.017,3.017,0,0,1-4.416,0L23.25,41.258Zm-4.434-7.6a13.863,13.863,0,0,1-9.242-13.076A3.657,3.657,0,0,1,22.1,16.935H33.271a3.657,3.657,0,0,1,3.656,3.649A13.861,13.861,0,0,1,27.685,33.661ZM41.968,51.323V46.29h-1.68v5.032H15.082V46.29H13.4v5.032H6.71a11.609,11.609,0,0,1,7.225-9.947l5.168-2.11,5.143,5.529a4.7,4.7,0,0,0,6.879,0l5.143-5.529,5.168,2.11a11.61,11.61,0,0,1,7.225,9.947H41.968Z" transform="translate(-5 -1)"/><path d="M3.256,3.175A8.76,8.76,0,0,0,1.489,5.082S.782,5.544.279,5.2.108,4.143.108,4.143a10.424,10.424,0,0,1,2.1-2.272A7.262,7.262,0,0,1,7.033,0H8.367a.828.828,0,0,1,.694.857.765.765,0,0,1-.694.814H7.033A4.932,4.932,0,0,0,3.256,3.175Z" transform="translate(13.702 4.599) rotate(-1)"/><path d="M1.011,2.023A1.01,1.01,0,0,1,0,1.012,1.012,1.012,0,0,1,1.011,0,1.012,1.012,0,0,1,2.023,1.012,1.01,1.01,0,0,1,1.011,2.023Zm0,0" transform="translate(12.422 10.615) rotate(-1)"/></g><g transform="translate(39.822 13.136)"><path d="M25.367,2.851,22.693,5.524l-9.139,9.045L31.363,32.221l7.369-7.432V16.216ZM35,20.5l2.4-2.4V22.9ZM15.6,14.569l9.765-9.829L37.119,16.493l-4.01,4.01,4.01,4.01-5.756,5.819Z" transform="translate(-13.554 -2.851)"/><path d="M34.238,22.022l.864-.864,1.337,1.337,2-2a2.281,2.281,0,0,0,0-3.226l-.392-.392a.945.945,0,0,1,0-1.337l1.06-1.06,1.06,1.06a.945.945,0,0,1,0,1.337l-.864.864.945.945.864-.864a2.272,2.272,0,0,0,.25-2.923L42.257,14l-.945-.945-.864.864-1.337-1.337-2,2a2.281,2.281,0,0,0,0,3.226l.392.392a.945.945,0,0,1,0,1.337l-1.06,1.06-1.06-1.06a.945.945,0,0,1,0-1.337l.864-.864L35.3,16.4l-.864.864a2.272,2.272,0,0,0-.25,2.923l-.891.891Z" transform="translate(-27.967 -7.24)"/><path d="M0,0H1.337V6.615H0Z" transform="translate(15.345 10.107) rotate(-45)"/><path d="M0,0H1.337V6.615H0Z" transform="translate(13.34 12.111) rotate(-45)"/><path d="M0,0H1.337V12.286H0Z" transform="translate(11.336 14.116) rotate(-45)"/><path d="M0,0H1.337V12.286H0Z" transform="translate(9.331 16.12) rotate(-45)"/></g></svg>