<svg xmlns="http://www.w3.org/2000/svg" width="65" height="52.001" viewBox="0 0 65 52.001"><g transform="translate(0.389 -0.063)"><rect width="65" height="52" transform="translate(-0.389 0.063)" fill="#fff"/><g transform="translate(9.585 0.063)"><ellipse cy="1.5" ry="1.5" transform="translate(18.026 17.063)"/><path d="M42.034,39.822,33.423,36.3a2.507,2.507,0,0,1-1.565-2.329v-.6a15.526,15.526,0,0,0,5.673-7.21h.2a4.2,4.2,0,0,0,4.2-4.194V16.1a1.68,1.68,0,0,0,1.679-1.677V12.742a1.68,1.68,0,0,0-1.679-1.677h-.64a14.259,14.259,0,0,0-27.257,0h-.64a1.68,1.68,0,0,0-1.679,1.677v1.677A1.68,1.68,0,0,0,13.393,16.1v5.871a4.2,4.2,0,0,0,4.2,4.194h.2a15.522,15.522,0,0,0,5.673,7.21v.6A2.506,2.506,0,0,1,21.9,36.3l-8.611,3.52A13.287,13.287,0,0,0,5,52.161V53H50.324v-.839a13.285,13.285,0,0,0-8.29-12.339ZM15.072,40.907l3.357-1.372V46.29H15.072Zm5.036-1.672,6.42,7.056h-6.42ZM28.8,46.29l6.42-7.056V46.29Zm8.1-6.757,3.357,1.372V46.29H36.895Zm1.187-15.085a15.566,15.566,0,0,0,.492-3.864v-.979a2.5,2.5,0,0,1-.492,4.843Zm2.171-5.814a4.158,4.158,0,0,0-1.679-.775V16.1h1.679ZM29.922,2.885l-.98,3.83a1.322,1.322,0,0,1-2.562,0l-.98-3.83a12.361,12.361,0,0,1,4.521,0ZM23.774,3.3l.98,3.833a3,3,0,0,0,5.815,0L31.55,3.3a12.567,12.567,0,0,1,7.985,7.766h-3.48V9.387H34.377v1.677H32.7V9.387H31.019v1.677H24.3V9.387H22.626v1.677H20.947V9.387H19.269v1.677h-3.48A12.567,12.567,0,0,1,23.774,3.3ZM13.393,12.742H41.931v1.677H13.393ZM16.751,16.1v1.762a4.169,4.169,0,0,0-1.679.775V16.1Zm-1.679,5.871a2.513,2.513,0,0,1,1.679-2.362v.979a15.566,15.566,0,0,0,.492,3.864A2.513,2.513,0,0,1,15.072,21.968Zm3.357-1.383V16.1H36.895v4.488a13.861,13.861,0,0,1-9.233,13.076A13.86,13.86,0,0,1,18.429,20.585ZM27.4,35.343l.265.089.265-.088a15.693,15.693,0,0,0,2.282-.966,4.168,4.168,0,0,0,1.021,2.372,4.193,4.193,0,0,1-7.139,0,4.162,4.162,0,0,0,1.021-2.372,15.61,15.61,0,0,0,2.283.966Zm-4.86,2.511c.072-.029.137-.07.206-.1a5.868,5.868,0,0,0,9.837,0c.07.034.135.074.207.1l1.031.422-6.157,6.768-6.157-6.768ZM6.708,51.323a11.6,11.6,0,0,1,6.685-9.708v9.708Zm8.364,0V47.968h25.18v3.355Zm26.859,0V41.615a11.6,11.6,0,0,1,6.685,9.708Z" transform="translate(-5 -1)"/></g></g></svg>