<svg xmlns="http://www.w3.org/2000/svg" width="65" height="52" viewBox="0 0 65 52"><g transform="translate(-0.236)"><rect width="65" height="52" transform="translate(0.236)" fill="#fff"/><g transform="translate(2.641 0)"><path d="M37.956,8.591a8.8,8.8,0,0,1,1.776,1.917s.711.464,1.216.12.172-1.064.172-1.064A10.434,10.434,0,0,0,32.5,5h-1.34a.832.832,0,0,0-.7.861.769.769,0,0,0,.7.818H32.5A8.772,8.772,0,0,1,37.956,8.591Z" transform="translate(-9.338 -1.643)"/><path d="M95.977,289.822a1.015,1.015,0,1,0-.719-.3A1.023,1.023,0,0,0,95.977,289.822Zm0,0" transform="translate(-63.737 -278.06)"/><path d="M42.034,39.822,33.424,36.3a2.506,2.506,0,0,1-1.565-2.329v-.6a15.526,15.526,0,0,0,5.673-7.21h.2a4.2,4.2,0,0,0,4.2-4.194v-7.21A13.761,13.761,0,0,0,28.163,1H25.292A14.8,14.8,0,0,0,12.747,7.881l-2.182,3.427.878.583a4.369,4.369,0,0,1,1.951,3.643v6.434a4.2,4.2,0,0,0,4.2,4.194h.2a15.522,15.522,0,0,0,5.673,7.21v.6A2.5,2.5,0,0,1,21.9,36.3l-8.611,3.52A13.286,13.286,0,0,0,5,52.161V53H50.325v-.839a13.284,13.284,0,0,0-8.29-12.339Zm-6.89,2.748-3.412,2.557,2.261-6.779.478.2ZM20.853,38.543l.478-.2,2.261,6.779L20.18,42.57Zm2.825,6.843,1.981,5.936h-.167l-3.464-3.461Zm-.8-7.7c.123-.064.244-.132.359-.206l4.425,5.053,4.425-5.053c.115.075.236.142.359.206L27.9,51.323h-.47Zm8.769,7.7,1.65,2.475-3.464,3.461h-.167Zm.212-28.451a3.347,3.347,0,0,0-2.891,1.677H26.356a3.347,3.347,0,0,0-2.891-1.677H18.43V12.758a18.519,18.519,0,0,1,6.794,1.59A20.223,20.223,0,0,0,33.475,16.1H36.9v.839Zm3.357,1.677V20.29a1.68,1.68,0,0,1-1.679,1.677H31.859a1.677,1.677,0,1,1,0-3.355ZM25.144,20.29a1.68,1.68,0,0,1-1.679,1.677H21.787a1.68,1.68,0,0,1-1.679-1.677V18.613h3.357A1.68,1.68,0,0,1,25.144,20.29Zm12.938,4.158a15.566,15.566,0,0,0,.492-3.864v-.978a2.5,2.5,0,0,1-.492,4.842Zm-25.233-13.6,1.314-2.064a13.131,13.131,0,0,1,11.129-6.1h2.871a12.086,12.086,0,0,1,12.089,12.08v3.877a4.158,4.158,0,0,0-1.679-.775v-3.44h-5.1a18.537,18.537,0,0,1-7.57-1.605,20.286,20.286,0,0,0-8.315-1.75h-.839v6.794a4.169,4.169,0,0,0-1.679.775v-3.1a6.044,6.044,0,0,0-2.223-4.688Zm2.223,11.122a2.513,2.513,0,0,1,1.679-2.362v.978a15.573,15.573,0,0,0,.492,3.865A2.512,2.512,0,0,1,15.072,21.968Zm3.357-1.383V20.29a3.359,3.359,0,0,0,3.357,3.355h1.679a3.359,3.359,0,0,0,3.357-3.355H28.5a3.359,3.359,0,0,0,3.357,3.355h1.679A3.359,3.359,0,0,0,36.9,20.29v.294a13.863,13.863,0,0,1-9.233,13.077A13.863,13.863,0,0,1,18.43,20.585ZM27.4,35.343l.265.089.265-.088a15.694,15.694,0,0,0,2.282-.966,4.166,4.166,0,0,0,.675,1.927l-3.222,3.679L24.439,36.3a4.176,4.176,0,0,0,.675-1.927A15.612,15.612,0,0,0,27.4,35.343ZM13.926,41.375l5.1-2.085L18.357,43.3l3.13,2.346-1.621,2.428,3.252,3.247H15.072V46.29H13.393v5.032H6.708A11.607,11.607,0,0,1,13.926,41.375Zm28,9.947V46.29H40.253v5.032H32.207l3.251-3.248-1.621-2.428,3.13-2.346L36.3,39.29l5.1,2.085a11.608,11.608,0,0,1,7.218,9.947H41.931Z" transform="translate(-5 -1)"/></g><text transform="translate(53.236 32.978)" font-size="11" font-family="SegoeUI-Bold, Segoe UI" font-weight="700" letter-spacing="0.1em"><tspan x="-11.925" y="0">ABC</tspan></text></g></svg>