<svg xmlns="http://www.w3.org/2000/svg" width="65" height="52" viewBox="0 0 65 52"><g transform="translate(0)"><rect width="64.388" height="51.511" transform="translate(0.196 0.098)" fill="#fff"/><g transform="translate(0 0)"><path d="M43.651,39.822,34.664,36.3a2.617,2.617,0,0,1-.834-.529,34.231,34.231,0,0,0,4.319-1.029,7.513,7.513,0,0,0,5.394-7.163V15.258C43.543,7.4,36.863,1,28.652,1S13.76,7.4,13.76,15.258V27.581a7.514,7.514,0,0,0,5.394,7.163,34.379,34.379,0,0,0,4.319,1.029,2.631,2.631,0,0,1-.835.529l-8.987,3.52A13.294,13.294,0,0,0,5,52.161V53H52.3v-.839a13.3,13.3,0,0,0-8.652-12.339Zm-15-6.161a13.911,13.911,0,0,1-9.636-13.076V15.576a9.5,9.5,0,0,0,6.132,2.2h.876V16.226a9.562,9.562,0,0,0,5.256,1.548h.876V16.226a9.562,9.562,0,0,0,5.256,1.548h.876v2.811A13.91,13.91,0,0,1,28.652,33.661Zm-2.659.716a16.675,16.675,0,0,0,2.382.966l.278.089.277-.088a16.774,16.774,0,0,0,2.382-.966,4.066,4.066,0,0,0,.738,1.97,4.486,4.486,0,0,1-6.793,0,4.059,4.059,0,0,0,.738-1.969Zm-10.48-6.8V15.258c0-6.937,5.895-12.581,13.14-12.581s13.14,5.644,13.14,12.581V27.581a5.83,5.83,0,0,1-4.179,5.566,32.3,32.3,0,0,1-4.563,1.046c-.007-.073-.018-.145-.018-.22v-.6A15.351,15.351,0,0,0,40.04,20.585V16.1H37.412A7.7,7.7,0,0,1,32.05,13.97L30.4,12.4V16.05a7.658,7.658,0,0,1-4.487-2.08L24.272,12.4V16.05a7.658,7.658,0,0,1-4.487-2.08l-.407-.389H17.264v7a15.35,15.35,0,0,0,7.008,12.786v.6c0,.075-.011.147-.018.22a32.3,32.3,0,0,1-4.563-1.046A5.83,5.83,0,0,1,15.512,27.581ZM23.3,37.855a4.522,4.522,0,0,0,.689-.348,6.272,6.272,0,0,0,9.32,0,4.443,4.443,0,0,0,.689.348l3.048,1.194a9.6,9.6,0,0,1-5.186,4.189l-.584.2v7.887H26.024V43.435l-.583-.2a9.6,9.6,0,0,1-5.186-4.189Zm-8.987,3.521,4.311-1.688A11.289,11.289,0,0,0,24.272,44.6v6.719h-8.76V46.29H13.76v5.032H6.783a11.659,11.659,0,0,1,7.534-9.947Zm29.227,9.947V46.29H41.792v5.032h-8.76V44.6a11.285,11.285,0,0,0,5.645-4.917l4.311,1.688a11.66,11.66,0,0,1,7.533,9.947H43.543Z" transform="translate(-5 -1)"/><path d="M31,57h1.674v1.674H31Z" transform="translate(-8.491 -10.021)"/><path d="M31,53h1.674v1.674H31Z" transform="translate(-8.491 -9.368)"/><path d="M31,49h1.674v1.674H31Z" transform="translate(-8.491 -8.739)"/><path d="M3.262,3.18A8.776,8.776,0,0,0,1.492,5.092s-.708.462-1.213.119S.108,4.15.108,4.15A10.442,10.442,0,0,1,2.216,1.874,7.275,7.275,0,0,1,7.046,0H8.382a.829.829,0,0,1,.7.858.766.766,0,0,1-.7.816H7.046A4.941,4.941,0,0,0,3.262,3.18Z" transform="translate(15.785 3.046) rotate(3)"/><path d="M1.013,2.027A1.012,1.012,0,0,1,0,1.013,1.014,1.014,0,0,1,1.013,0,1.014,1.014,0,0,1,2.026,1.013,1.012,1.012,0,0,1,1.013,2.027Zm0,0" transform="translate(13.99 8.949) rotate(3)"/><g transform="translate(42.324 2.764)"><g transform="translate(0 0)"><path d="M50.421,52.392H53.4V50.7H50.039c-.012-.149-.03-.3-.03-.449V49h-1.7v1.247c0,.151-.018.3-.03.449H44.922v1.7H47.9a5.952,5.952,0,0,1-2.471,2.945l-.946.567.873,1.454.946-.567a7.581,7.581,0,0,0,2.01-1.774V57.48h1.7V55.017a7.581,7.581,0,0,0,2.01,1.774l.946.567.873-1.454-.946-.567a5.953,5.953,0,0,1-2.471-2.945Z" transform="translate(-37.481 -45.28)"/><path d="M55.314,55.829H47.73l-6.369,4.246V55.829h0A4.366,4.366,0,0,1,37,51.469V44.492a4.366,4.366,0,0,1,4.361-4.361H55.314a4.366,4.366,0,0,1,4.361,4.361v6.977A4.366,4.366,0,0,1,55.314,55.829Zm2.616-11.338a2.62,2.62,0,0,0-2.616-2.616H41.361a2.62,2.62,0,0,0-2.616,2.616v6.977a2.62,2.62,0,0,0,2.616,2.616H43.1v2.731l4.1-2.731h8.113a2.62,2.62,0,0,0,2.616-2.616Z" transform="translate(-37 -40.131)"/></g></g><g transform="translate(42.324 24.932)"><g transform="translate(0 0)"><path d="M55.315,44.377H47.73l-6.369-4.246v4.246h0A4.366,4.366,0,0,0,37,48.738v6.977a4.366,4.366,0,0,0,4.361,4.361H55.315a4.366,4.366,0,0,0,4.361-4.361V48.738A4.366,4.366,0,0,0,55.315,44.377Zm2.616,11.338a2.62,2.62,0,0,1-2.616,2.616H41.361a2.62,2.62,0,0,1-2.616-2.616V48.738a2.62,2.62,0,0,1,2.616-2.616H43.1V43.391l4.1,2.731h8.114a2.62,2.62,0,0,1,2.616,2.616Z" transform="translate(-37 -40.131)"/><path d="M30.008,268.485l.44-1.524H33.09l.44,1.525c.172.55,1.362.171,1.183-.363l-2.167-7.088c-.185-.555-1.364-.57-1.554,0l-2.177,7.087C28.635,268.658,29.836,269.036,30.008,268.485Zm1.755-6.1,1.04,3.566h-2.08Zm0,0" transform="translate(-26.261 -252.634)"/><path d="M117.855,263.374c0-1.3-.736-1.933-2.251-1.933h-1.991c-.267,0-.555.132-.555.423v7.24c0,.2.194.412.555.412h2.221a2.036,2.036,0,0,0,2.218-2.337c0-.957-.142-1.648-1.067-2.038A1.875,1.875,0,0,0,117.855,263.374Zm-3.567-.823h1.24c.721,0,1.087.34,1.087,1.009a.945.945,0,0,1-1.065,1.086h-1.261Zm1.327,5.858h-1.327v-2.763h1.327c.991,0,1.2.563,1.2,1.447S116.409,268.409,115.616,268.409Zm0,0" transform="translate(-103.802 -253.396)"/><path d="M190.443,262.551a1.09,1.09,0,0,1,1.24,1.132c.011.272.232.422.621.422s.62-.105.62-.642c0-1.208-1.014-2.02-2.524-2.02a2.253,2.253,0,0,0-2.47,2.479V267.1a2.248,2.248,0,0,0,2.459,2.479c1.517,0,2.535-.838,2.535-2.086,0-.535-.242-.642-.631-.642s-.588.141-.609.42c-.053.58-.195,1.2-1.218,1.2-.871,0-1.294-.448-1.294-1.371v-3.183C189.171,263.012,189.6,262.551,190.443,262.551Zm0,0" transform="translate(-172.698 -253.396)"/></g></g></g></g></svg>